<svg xmlns="http://www.w3.org/2000/svg" width="805" height="600"><rect width="805" height="600" x="0" y="0" fill="#FFFFFF" id="background"/><g id="viz"><clipPath id="serieClipPath"><rect x="-50" y="-10" width="805" height="600"/></clipPath><g transform="translate(0,0)"><g transform="translate(50,10)" clip-path="url(#serieClipPath)"><g id="axis"><g transform="translate(0,570)" fill="none" font-size="10" font-family="sans-serif" text-anchor="middle"><path class="domain" stroke="currentColor" d="M0,6V0H740V6"/><g class="tick" opacity="1" transform="translate(0,0)"><line stroke="currentColor" y2="6"/><text fill="currentColor" y="9" dy="0.71em">Dec 31</text></g><g class="tick" opacity="1" transform="translate(46.25,0)"><line stroke="currentColor" y2="6"/><text fill="currentColor" y="9" dy="0.71em">Jan 07</text></g><g class="tick" opacity="1" transform="translate(92.5,0)"><line stroke="currentColor" y2="6"/><text fill="currentColor" y="9" dy="0.71em">Jan 14</text></g><g class="tick" opacity="1" transform="translate(138.75,0)"><line stroke="currentColor" y2="6"/><text fill="currentColor" y="9" dy="0.71em">Jan 21</text></g><g class="tick" opacity="1" transform="translate(185,0)"><line stroke="currentColor" y2="6"/><text fill="currentColor" y="9" dy="0.71em">Jan 28</text></g><g class="tick" opacity="1" transform="translate(231.25,0)"><line stroke="currentColor" y2="6"/><text fill="currentColor" y="9" dy="0.71em">Feb 04</text></g><g class="tick" opacity="1" transform="translate(277.5,0)"><line stroke="currentColor" y2="6"/><text fill="currentColor" y="9" dy="0.71em">Feb 11</text></g><g class="tick" opacity="1" transform="translate(323.75,0)"><line stroke="currentColor" y2="6"/><text fill="currentColor" y="9" dy="0.71em">Feb 18</text></g><g class="tick" opacity="1" transform="translate(370,0)"><line stroke="currentColor" y2="6"/><text fill="currentColor" y="9" dy="0.71em">Feb 25</text></g><g class="tick" opacity="1" transform="translate(416.25,0)"><line stroke="currentColor" y2="6"/><text fill="currentColor" y="9" dy="0.71em">Mar 03</text></g><g class="tick" opacity="1" transform="translate(462.5,0)"><line stroke="currentColor" y2="6"/><text fill="currentColor" y="9" dy="0.71em">Mar 10</text></g><g class="tick" opacity="1" transform="translate(508.75,0)"><line stroke="currentColor" y2="6"/><text fill="currentColor" y="9" dy="0.71em">Mar 17</text></g><g class="tick" opacity="1" transform="translate(555,0)"><line stroke="currentColor" y2="6"/><text fill="currentColor" y="9" dy="0.71em">Mar 24</text></g><g class="tick" opacity="1" transform="translate(601.25,0)"><line stroke="currentColor" y2="6"/><text fill="currentColor" y="9" dy="0.71em">Mar 31</text></g><g class="tick" opacity="1" transform="translate(647.5,0)"><line stroke="currentColor" y2="6"/><text fill="currentColor" y="9" dy="0.71em">Apr 07</text></g><g class="tick" opacity="1" transform="translate(693.75,0)"><line stroke="currentColor" y2="6"/><text fill="currentColor" y="9" dy="0.71em">Apr 14</text></g><g class="tick" opacity="1" transform="translate(740,0)"><line stroke="currentColor" y2="6"/><text fill="currentColor" y="9" dy="0.71em">Apr 21</text></g><text x="740" dy="-5" text-anchor="end" style="font-family: Arial, sans-serif; font-size: 12px; fill: rgb(123, 123, 123); font-weight: bold;">Fecha</text></g><g transform="translate(0,0)" fill="none" font-size="10" font-family="sans-serif" text-anchor="end"><path class="domain" stroke="currentColor" d="M0,570V0"/><g class="tick" opacity="1" transform="translate(0,570)"><line stroke="currentColor" x2="-6"/><text fill="currentColor" x="-9" dy="0.32em">0</text></g><g class="tick" opacity="1" transform="translate(0,513)"><line stroke="currentColor" x2="-6"/><text fill="currentColor" x="-9" dy="0.32em">20</text></g><g class="tick" opacity="1" transform="translate(0,456)"><line stroke="currentColor" x2="-6"/><text fill="currentColor" x="-9" dy="0.32em">40</text></g><g class="tick" opacity="1" transform="translate(0,399)"><line stroke="currentColor" x2="-6"/><text fill="currentColor" x="-9" dy="0.32em">60</text></g><g class="tick" opacity="1" transform="translate(0,342)"><line stroke="currentColor" x2="-6"/><text fill="currentColor" x="-9" dy="0.32em">80</text></g><g class="tick" opacity="1" transform="translate(0,285)"><line stroke="currentColor" x2="-6"/><text fill="currentColor" x="-9" dy="0.32em">100</text></g><g class="tick" opacity="1" transform="translate(0,228)"><line stroke="currentColor" x2="-6"/><text fill="currentColor" x="-9" dy="0.32em">120</text></g><g class="tick" opacity="1" transform="translate(0,171.00000000000003)"><line stroke="currentColor" x2="-6"/><text fill="currentColor" x="-9" dy="0.32em">140</text></g><g class="tick" opacity="1" transform="translate(0,113.99999999999997)"><line stroke="currentColor" x2="-6"/><text fill="currentColor" x="-9" dy="0.32em">160</text></g><g class="tick" opacity="1" transform="translate(0,56.999999999999986)"><line stroke="currentColor" x2="-6"/><text fill="currentColor" x="-9" dy="0.32em">180</text></g><g class="tick" opacity="1" transform="translate(0,0)"><line stroke="currentColor" x2="-6"/><text fill="currentColor" x="-9" dy="0.32em">200</text></g><text x="4" text-anchor="start" dominant-baseline="hanging" style="font-family: Arial, sans-serif; font-size: 12px; fill: rgb(123, 123, 123); font-weight: bold;">Kg en ejercicio</text></g></g><g id="viz"><g id="Prensa"><path d="M6.607142857142857,285C13.214285714285714,285,13.214285714285714,456,19.82142857142857,456C36.33928571428571,456,36.33928571428571,456,52.857142857142854,456C59.46428571428571,456,59.46428571428571,427.5,66.07142857142857,427.5C128.83928571428572,427.5,128.83928571428572,399,191.60714285714286,399C198.21428571428572,399,198.21428571428572,342,204.82142857142858,342C221.33928571428572,342,221.33928571428572,327.75,237.85714285714286,327.75C244.46428571428572,327.75,244.46428571428572,285,251.07142857142858,285C290.7142857142857,285,290.7142857142857,285,330.3571428571429,285C336.9642857142857,285,336.9642857142857,0,343.57142857142856,0C383.21428571428567,0,383.21428571428567,228,422.85714285714283,228C429.46428571428567,228,429.46428571428567,228,436.07142857142856,228C475.7142857142857,228,475.7142857142857,228,515.3571428571429,228C521.9642857142858,228,521.9642857142858,199.5,528.5714285714286,199.5C551.6964285714286,199.5,551.6964285714286,142.5,574.8214285714286,142.5C581.4285714285713,142.5,581.4285714285713,142.5,588.0357142857142,142.5C597.9464285714286,142.5,597.9464285714286,142.5,607.8571428571429,142.5C630.9821428571429,142.5,630.9821428571429,113.99999999999997,654.1071428571429,113.99999999999997C677.2321428571429,113.99999999999997,677.2321428571429,113.99999999999997,700.3571428571429,113.99999999999997" stroke="#e377c2" fill="none"/><text font-family="sans-serif" font-size="10" class="labels" x="700.3571428571429" y="113.99999999999997" dx="5" dy="4" text-anchor="start">Prensa</text></g><g id="Peso muerto"><path d="M6.607142857142857,484.5C13.214285714285714,484.5,13.214285714285714,541.5,19.82142857142857,541.5C36.33928571428571,541.5,36.33928571428571,541.5,52.857142857142854,541.5C59.46428571428571,541.5,59.46428571428571,541.5,66.07142857142857,541.5C128.83928571428572,541.5,128.83928571428572,513,191.60714285714286,513C198.21428571428572,513,198.21428571428572,484.5,204.82142857142858,484.5C221.33928571428572,484.5,221.33928571428572,484.5,237.85714285714286,484.5C244.46428571428572,484.5,244.46428571428572,456,251.07142857142858,456C290.7142857142857,456,290.7142857142857,456,330.3571428571429,456C336.9642857142857,456,336.9642857142857,427.5,343.57142857142856,427.5C360.08928571428567,427.5,360.08928571428567,456,376.60714285714283,456C399.73214285714283,456,399.73214285714283,427.5,422.85714285714283,427.5C429.46428571428567,427.5,429.46428571428567,427.5,436.07142857142856,427.5C475.7142857142857,427.5,475.7142857142857,427.5,515.3571428571429,427.5C521.9642857142858,427.5,521.9642857142858,427.5,528.5714285714286,427.5C551.6964285714286,427.5,551.6964285714286,399,574.8214285714286,399C581.4285714285713,399,581.4285714285713,399,588.0357142857142,399C597.9464285714286,399,597.9464285714286,399,607.8571428571429,399C630.9821428571429,399,630.9821428571429,399,654.1071428571429,399C677.2321428571429,399,677.2321428571429,399,700.3571428571429,399" stroke="#8c564b" fill="none"/><text font-family="sans-serif" font-size="10" class="labels" x="700.3571428571429" y="399" dx="5" dy="4" text-anchor="start">Peso muerto</text></g><g id="Hack"><path d="M6.607142857142857,427.5C13.214285714285714,427.5,13.214285714285714,513,19.82142857142857,513C36.33928571428571,513,36.33928571428571,513,52.857142857142854,513C59.46428571428571,513,59.46428571428571,513,66.07142857142857,513C128.83928571428572,513,128.83928571428572,484.5,191.60714285714286,484.5C198.21428571428572,484.5,198.21428571428572,484.5,204.82142857142858,484.5C221.33928571428572,484.5,221.33928571428572,484.5,237.85714285714286,484.5C244.46428571428572,484.5,244.46428571428572,456,251.07142857142858,456C290.7142857142857,456,290.7142857142857,456,330.3571428571429,456C336.9642857142857,456,336.9642857142857,456,343.57142857142856,456C360.08928571428567,456,360.08928571428567,456,376.60714285714283,456C399.73214285714283,456,399.73214285714283,456,422.85714285714283,456C429.46428571428567,456,429.46428571428567,441.75,436.07142857142856,441.75C475.7142857142857,441.75,475.7142857142857,441.75,515.3571428571429,441.75C521.9642857142858,441.75,521.9642857142858,441.75,528.5714285714286,441.75C551.6964285714286,441.75,551.6964285714286,427.5,574.8214285714286,427.5C581.4285714285713,427.5,581.4285714285713,427.5,588.0357142857142,427.5C597.9464285714286,427.5,597.9464285714286,427.5,607.8571428571429,427.5C630.9821428571429,427.5,630.9821428571429,399,654.1071428571429,399C677.2321428571429,399,677.2321428571429,399,700.3571428571429,399" stroke="#9467bd" fill="none"/><text font-family="sans-serif" font-size="10" class="labels" x="700.3571428571429" y="399" dx="5" dy="4" text-anchor="start">Hack</text></g><g id="Sentadilla Smith"><path d="M6.607142857142857,541.5C13.214285714285714,541.5,13.214285714285714,NaN,19.82142857142857,NaNC36.33928571428571,NaN,36.33928571428571,NaN,52.857142857142854,NaNC59.46428571428571,NaN,59.46428571428571,513,66.07142857142857,513C128.83928571428572,513,128.83928571428572,541.5,191.60714285714286,541.5C198.21428571428572,541.5,198.21428571428572,527.25,204.82142857142858,527.25C221.33928571428572,527.25,221.33928571428572,527.25,237.85714285714286,527.25C244.46428571428572,527.25,244.46428571428572,513,251.07142857142858,513C290.7142857142857,513,290.7142857142857,513,330.3571428571429,513C336.9642857142857,513,336.9642857142857,484.5,343.57142857142856,484.5C360.08928571428567,484.5,360.08928571428567,513,376.60714285714283,513C399.73214285714283,513,399.73214285714283,484.5,422.85714285714283,484.5C429.46428571428567,484.5,429.46428571428567,484.5,436.07142857142856,484.5C475.7142857142857,484.5,475.7142857142857,456,515.3571428571429,456C521.9642857142858,456,521.9642857142858,456,528.5714285714286,456C551.6964285714286,456,551.6964285714286,427.5,574.8214285714286,427.5C581.4285714285713,427.5,581.4285714285713,427.5,588.0357142857142,427.5C601.25,427.5,601.25,427.5,614.4642857142858,427.5C634.2857142857143,427.5,634.2857142857143,413.25,654.1071428571429,413.25C677.2321428571429,413.25,677.2321428571429,413.25,700.3571428571429,413.25" stroke="#bcbd22" fill="none"/><text font-family="sans-serif" font-size="10" class="labels" x="700.3571428571429" y="413.25" dx="5" dy="4" text-anchor="start">Sentadilla Smith</text></g><g id="Remo maquina sentada agarre cerrado"><path d="M13.214285714285714,541.5C36.339285714285715,541.5,36.339285714285715,527.25,59.464285714285715,527.25C128.83928571428572,527.25,128.83928571428572,541.5,198.21428571428572,541.5C221.33928571428572,541.5,221.33928571428572,513,244.46428571428572,513C290.7142857142857,513,290.7142857142857,498.75,336.9642857142857,498.75C360.0892857142857,498.75,360.0892857142857,498.75,383.2142857142857,498.75C406.3392857142857,498.75,406.3392857142857,484.5,429.4642857142857,484.5C475.7142857142858,484.5,475.7142857142858,456,521.9642857142858,456C551.6964285714287,456,551.6964285714287,456,581.4285714285714,456C597.9464285714287,456,597.9464285714287,456,614.4642857142858,456C637.5892857142858,456,637.5892857142858,456,660.7142857142858,456" stroke="#7f7f7f" fill="none"/><text font-family="sans-serif" font-size="10" class="labels" x="660.7142857142858" y="456" dx="5" dy="4" text-anchor="start">Remo maquina sentada agarre cerrado</text></g><g id="Curl martillo mancuerna"><path d="M13.214285714285714,558.6C36.339285714285715,558.6,36.339285714285715,552.9,59.464285714285715,552.9C82.58928571428571,552.9,82.58928571428571,547.1999999999999,105.71428571428571,547.1999999999999C151.96428571428572,547.1999999999999,151.96428571428572,552.9,198.21428571428572,552.9C221.33928571428572,552.9,221.33928571428572,547.1999999999999,244.46428571428572,547.1999999999999C290.7142857142857,547.1999999999999,290.7142857142857,541.5,336.9642857142857,541.5C360.0892857142857,541.5,360.0892857142857,541.5,383.2142857142857,541.5C406.3392857142857,541.5,406.3392857142857,513,429.4642857142857,513C475.7142857142858,513,475.7142857142858,484.5,521.9642857142858,484.5C551.6964285714287,484.5,551.6964285714287,484.5,581.4285714285714,484.5C597.9464285714287,484.5,597.9464285714287,484.5,614.4642857142858,484.5C637.5892857142858,484.5,637.5892857142858,484.5,660.7142857142858,484.5" stroke="#d62728" fill="none"/><text font-family="sans-serif" font-size="10" class="labels" x="660.7142857142858" y="484.5" dx="5" dy="4" text-anchor="start">Curl martillo mancuerna</text></g><g id="Abdominales"><path d="M13.214285714285714,NaNC36.339285714285715,NaN,36.339285714285715,NaN,59.464285714285715,NaNC82.58928571428571,NaN,82.58928571428571,NaN,105.71428571428571,NaNC151.96428571428572,NaN,151.96428571428572,NaN,198.21428571428572,NaNC221.33928571428572,NaN,221.33928571428572,NaN,244.46428571428572,NaNC290.7142857142857,NaN,290.7142857142857,NaN,336.9642857142857,NaNC360.0892857142857,NaN,360.0892857142857,NaN,383.2142857142857,NaNC406.3392857142857,NaN,406.3392857142857,NaN,429.4642857142857,NaNC475.7142857142858,NaN,475.7142857142858,555.75,521.9642857142858,555.75C551.6964285714287,555.75,551.6964285714287,555.75,581.4285714285714,555.75C597.9464285714287,555.75,597.9464285714287,541.5,614.4642857142858,541.5C637.5892857142858,541.5,637.5892857142858,541.5,660.7142857142858,541.5" stroke="#1f77b4" fill="none"/><text font-family="sans-serif" font-size="10" class="labels" x="660.7142857142858" y="541.5" dx="5" dy="4" text-anchor="start">Abdominales</text></g><g id="Boxeo"><path d="M284.1071428571429,NaNC287.41071428571433,NaN,287.41071428571433,NaN,290.7142857142857,NaNC294.0178571428571,NaN,294.0178571428571,NaN,297.32142857142856,NaNC343.57142857142856,NaN,343.57142857142856,NaN,389.82142857142856,NaN" stroke="#ff7f0e" fill="none"/><text font-family="sans-serif" font-size="10" class="labels" x="389.82142857142856" dx="5" dy="4" text-anchor="start">Boxeo</text></g><g id="Cardio"><path d="M667.3214285714286,NaNZ" stroke="#2ca02c" fill="none"/><text font-family="sans-serif" font-size="10" class="labels" x="667.3214285714286" dx="5" dy="4" text-anchor="start">Cardio</text></g></g></g><text y="4" x="4" style="font-family: Arial, sans-serif; font-size: 12px; fill: black; font-weight: bold; dominant-baseline: hanging;"/></g><g id="grid"><rect x="0" y="0" width="805" height="600" fill="none" stroke="#ccc"/></g></g></svg>